<svg width="98" height="98" viewBox="0 0 98 98" fill="none" xmlns="http://www.w3.org/2000/svg"><g clip-path="url(#clip0_12070_51)"><path d="M38.1467 22.4978S16.9753 64.2115 16.0374 61.0587C15.0996 57.906 11.5925 59.1408 11.4795 57.2649 11.3403 54.9529 14.5479 55.389 14.7187 53.0034c.1655-2.3856-4.2742-2.827-4.0352-4.829.3599-2.9767 5.2252-2.3278 5.396-4.6293.1707-2.3015-6.13681-6.2766-5.7112-7.9239C11.2667 32.1531 19.4868 33.9187 20.4246 31.1915 21.3625 28.4644 15.5698 19.1322 17.104 17.4297c1.8889-2.1019 12.6414-.7882 21.0453 5.0707L38.1467 22.4978z" fill="#ed6325"></path><path d="M.661654 78.4566C.446236 84.9829 6.68548 91.4093 16.7576 89.3626 22.348 88.225 23.8323 87.6417 26.3043 87.5944 26.5828 87.5944 27.5443 87.5892 27.7019 87.5997 28.3928 87.6417 29.0023 87.7258 29.554 87.8414 30.2528 88.0305 31.0094 88.3222 31.8815 88.7347 36.0454 91.3462 33.2713 96.79 39.5 96.8793 47.15 96.9897 48.1272 90.6657 53.1948 90.2927 53.447 90.2979 53.7045 90.2979 53.9593 90.2979 58.2782 90.671 57.7422 97.3049 64.2705 96.8793 71.1428 96.4327 69.5876 89.6963 79.1763 82.2557 82.2553 79.1897 102.271 55.1892 84.1205 30.616 70.1472 11.6994 28.0539 18.3465 21.066 38.7974c-3.4467 10.0942-4.6972 20.7269-3.5413 28.8374C17.9555 76.0159 18.3837 81.7644 12.951 83.128c-7.92581 1.9889-9.09485-8.1315-5.33291-9.1378C10.6497 73.181 10.5289 75.7242 9.89049 77.5581 9.02619 79.4682 11.338 80.6452 12.9142 77.918 13.8994 76.2077 14.12 71.6677 10.211 70.3488 6.29931 69.0325.919105 70.7429.661654 78.4566z" fill="#f8c218"></path><path d="M57.2802 93.632C56.316 92.279 55.4832 91.1098 53.9254 90.9627 53.689 90.9627 53.4473 90.9627 53.2109 90.9574 51.2432 91.1124 49.9454 92.2868 48.4454 93.6452c-2.0544 1.8575-4.3872 3.9567-8.9556 3.8989C35.4205 97.4863 34.6744 95.1848 34.0176 93.1512 33.5421 91.6826 33.0929 90.2927 31.5613 89.318 30.7443 88.9344 30.0376 88.6612 29.3966 88.4878 28.8476 88.3722 28.2801 88.2986 27.6575 88.2618 27.5446 88.2539 26.8221 88.2566 26.5147 88.2566H26.3125C24.7205 88.2855 23.5619 88.5456 21.2554 89.0658 20.1284 89.3206 18.7255 89.6359 16.8866 90.009 11.8637 91.031 7.30574 90.0773 4.05345 87.3291 1.36598 85.0565-.110425 81.8144-.892007e-4 78.4331.15228 73.8615 2.02011 71.6283 3.55957 70.559 5.47206 69.2322 8.03606 68.9196 10.4188 69.7235 12.0292 70.2674 13.1877 71.3682 13.7709 72.9105 14.496 74.831 14.1755 77.0485 13.4819 78.2491c-1.0823 1.8733-2.5718 2.2149-3.49656 1.7393C9.23925 79.6048 8.70333 78.6065 9.2734 77.3165 9.67534 76.1499 9.70424 75.1121 9.34696 74.7259 9.01595 74.3686 8.22784 74.5131 7.78912 74.6313 6.50449 74.9755 5.87137 77.0091 6.40729 79.0715c.59109 2.2779 2.57451 4.3745 6.38371 3.4207C17.3568 81.3467 17.3385 76.8199 16.8945 68.2496L16.8656 67.7058C15.6782 59.3299 16.9812 48.7208 20.4384 38.59c1.6734-4.8973 5.4196-9.3007 10.8313-12.7399 5.0151-3.1843 11.2044-5.4148 17.8981-6.45C56.1715 18.315 63.1017 18.6329 69.207 20.317 75.8771 22.1561 81.2178 25.5848 84.6488 30.2299 92.3198 40.6156 94.2533 52.541 90.2339 64.7159 86.6059 75.7085 79.7099 82.663 79.639 82.7313L79.5786 82.7865C75.215 86.1731 73.2211 89.3889 71.6186 91.9716 69.7797 94.9404 68.3243 97.2866 64.3075 97.5467 64.0921 97.5598 63.8846 97.5677 63.6823 97.5677 60.078 97.5677 58.5306 95.3976 57.2749 93.6347L57.2802 93.632zm31.698-29.3339c3.9327-11.9174 2.1174-23.1176-5.3934-33.2853C80.3299 26.6068 75.236 23.3489 68.8523 21.5887c-5.9266-1.6342-12.6624-1.939-19.4848-.8828-13.7421 2.1255-24.6076 9.3138-27.6813 18.3097-3.3495 9.8051-4.6604 20.4719-3.5123 28.5299L18.208 68.1787C18.6336 76.3838 18.941 82.311 13.1063 83.7717 8.35919 84.9619 5.83985 82.1638 5.12266 79.4025c-.82489-3.1764.53329-5.5699 2.31969-6.048C8.73486 73.0077 9.69899 73.1679 10.3111 73.8274 11.3435 74.9414 10.7945 76.9618 10.5081 77.7789L10.4871 77.834C10.2822 78.2859 10.3216 78.68 10.5869 78.814 10.8969 78.9743 11.6456 78.7825 12.3365 77.5897 12.7858 76.812 13.1431 74.9939 12.5336 73.3807 12.0896 72.2037 11.2358 71.3971 9.99584 70.9794 8.00717 70.3094 5.88188 70.559 4.3109 71.6493 2.45883 72.9341 1.42377 75.2961 1.31869 78.483 1.22149 81.4571 2.52714 84.313 4.90462 86.3229 7.84166 88.8057 12.0029 89.6569 16.6213 88.719 18.4497 88.3485 19.842 88.0332 20.9638 87.781 23.2808 87.2582 24.5576 86.9718 26.2993 86.9403h.2102C27.2083 86.9403 27.6102 86.9403 27.7363 86.9482 28.4272 86.9902 29.0656 87.0743 29.683 87.203L29.7198 87.2135C30.4501 87.4106 31.2461 87.718 32.1577 88.1488L32.226 88.1856C34.1884 89.4152 34.7637 91.1886 35.2681 92.7519 35.9143 94.7434 36.3793 96.1831 39.5029 96.2278 39.5659 96.2278 39.629 96.2278 39.692 96.2278c3.9275.0 5.9267-1.80760000000001 7.8628-3.56C49.1731 91.2044 50.7046 89.8198 53.1399 89.6411H53.1714 53.203C53.4499 89.6464 53.7126 89.6464 53.9517 89.6464H54.0068C56.1899 89.8356 57.2907 91.3778 58.352 92.8701 59.6629 94.7092 60.9081 96.4406 64.2182 96.2304 67.5546 96.0124 68.6605 94.2311 70.4916 91.278 72.144 88.6112 74.201 85.293 78.73 81.7697 80.6215 79.8755 86.0595 73.1364 88.9729 64.3034L88.9782 64.2981z" fill="#000"></path><path d="M30.8466 18.0781c3.9379 1.3215 5.5142 3.066 7.826.7803C41.5571 16.0104 36.0087 3.85909 40.4196 1.13457 44.3654-1.30094 59.0243 5.89262 64.704 20.038 66.3985 24.2628 63.3826 25.9337 61.2521 24.5255c-2.1306-1.4056-18.7887-6.9466-33.1035 3.1948.0.0-.8538-10.8377 2.698-9.6449V18.0781z" fill="#ed6225"></path><path d="M41.0508 46.8945c0-4.716 3.8197-8.5361 8.5326-8.5361H88.8001C93.513 38.3584 97.3327 42.1785 97.3327 46.8919c0 4.716-3.8197 8.5361-8.5326 8.5361H49.5834c-4.7129.0-8.5326-3.8201-8.5326-8.5335z" fill="#585ba8"></path><path d="M40.3906 46.8922C40.3906 41.8215 44.5151 37.6992 49.5853 37.6992H88.8019c5.0702.0 9.1921 4.1249 9.1921 9.1982C97.994 51.9681 93.8695 56.0904 88.8019 56.0904H49.5853c-5.0702.0-9.1947-4.1249-9.1947-9.1982zm9.1947-7.8714C45.2454 39.0208 41.712 42.5519 41.712 46.8948 41.712 51.2351 45.2428 54.7662 49.5853 54.7662H88.8019c4.3399.0 7.8707-3.5311 7.8707-7.874.0-4.343-3.5308-7.8714-7.8707-7.8714H49.5853z" fill="#231735"></path><path d="M52.9609 46.8952c0-3.1264 2.5351-5.6618 5.6613-5.6618H88.3815c3.1262.0 5.6613 2.5354 5.6613 5.6618.0 3.1265-2.5351 5.6619-5.6613 5.6619H58.6222c-3.1262.0-5.6613-2.5354-5.6613-5.6619z" fill="#1d112f"></path><path d="M16.4716 63.2552 17.793 63.2026c-.1051-2.6877-2.338-3.8437-3.9694-4.6897C13.0328 58.103 12.1396 57.6406 12.1396 57.2676c0-.754100000000001.4282-1.0483 1.2452-1.5423C14.2229 55.2183 15.2684 54.5851 15.3761 53.0533 15.4917 51.4376 14.0521 50.4628 12.8988 49.6773 12.0319 49.0887 11.2096 48.5318 11.2779 47.9669 11.4093 46.8844 12.3419 46.5087 13.863 46.0148 15.1607 45.5944 16.6292 45.1189 16.7422 43.595 16.8447 42.2157 15.4471 41.0177 13.968 39.7487c-1.4632-1.2559-3.1235-2.6773-2.9396-4.0382C11.2149 34.3101 12.7832 34.0895 15.3394 33.8924 17.6144 33.7164 20.1915 33.5193 21.0401 31.4438 21.9096 29.3183 20.5488 26.578 19.2353 23.927c-1.1769-2.3751-2.3959-4.8316-1.5684-6.1426 1.4108-2.2411 7.2638-1.29 15.2763 2.4802L33.5054 19.0691c-4.2243-1.9888-14.3332-6.1636-16.9576-1.9888C15.3262 19.0192 16.6503 21.6886 18.0531 24.5155c1.1848 2.3883 2.409 4.8553 1.7654 6.4291C19.2799 32.2635 17.3175 32.4159 15.2395 32.5761 12.8121 32.7627 10.0616 32.9755 9.7201 35.5371c-.27847 2.0703 1.6708 3.7413 3.3889 5.2178C14.2202 41.7086 15.4786 42.7858 15.4261 43.5005 15.384 44.0758 14.764 44.3386 13.4584 44.7616 12.0109 45.2319 10.2087 45.8151 9.96967 47.8145 9.80679 49.1807 11.0573 50.0267 12.1606 50.7755 13.3454 51.5794 14.1204 52.1653 14.0626 52.9614 14.0048 53.7706 13.532 54.0938 12.7044 54.5956 11.8664 55.1027 10.8235 55.7358 10.8235 57.2702c0 1.177 1.1637 1.78129999999999 2.3985 2.4197C14.7851 60.4991 16.4033 61.3399 16.4795 63.2578L16.4716 63.2552z" fill="#000"></path><path d="M62.812 25.6739C63.4977 25.6739 64.1623 25.4532 64.6983 25.0171 65.9776 23.9741 66.2062 22.0193 65.313 19.7914 61.2988 9.79974 53.0368 3.05019 46.6294.795962 43.8684-.176142 41.546-.260216 40.0907.556877 37.1641 2.20157 37.7946 6.74681 38.4041 11.1423 38.827 14.19 39.2631 17.3427 38.2044 18.3884c-1.5526 1.537-3.5465 1.1586-4.9441.5701L32.748 20.1776C35.249 21.2285 37.5161 20.929 39.1344 19.329 40.6634 17.8183 40.201 14.4869 39.7124 10.961 39.1896 7.1882 38.5985 2.91357 40.7395 1.71026c1.1034-.62004 3.0895-.49918 5.4512.33367C52.317 4.20095 60.227 10.6773 64.0862 20.2853 64.7534 21.9484 64.6694 23.3356 63.8629 23.9951 63.2691 24.4785 62.3654 24.4706 61.6115 23.9767L60.8838 25.0802C61.4854 25.4795 62.1605 25.6766 62.812 25.6766V25.6739z" fill="#000"></path><path d="M28.529 29.3211c11.9978-8.9748 25.2407-8.4494 32.4704-4.1642L61.6745 24.0192c-7.5921-4.5032-21.4525-5.0943-33.9362 4.2431L28.529 29.3211z" fill="#000"></path><path d="M70.5554 50.2765C70.0904 50.2765 69.628 50.1084 69.276 49.7773l-3.0185-2.8086C66.0605 46.7927 65.7216 46.7874 65.5325 46.9687L65.2829 47.2183C64.5447 47.8751 63.4151 47.8673 62.7084 47.2052L60.5305 45.1848C60.3309 45.0088 59.9946 45.0035 59.8055 45.1822l-2.7873 2.6036C56.7423 48.0433 56.3115 48.0275 56.0567 47.7543 55.7992 47.4784 55.815 47.0502 56.0882 46.7927L58.8729 44.1917C59.5769 43.5296 60.7066 43.5243 61.4448 44.1812l2.1909 2.0335C63.8249 46.3933 64.1532 46.3907 64.3634 46.2147L64.5841 45.994C65.3039 45.3161 66.4335 45.3109 67.1717 45.9677l3.0317 2.8217C70.3951 48.9707 70.734 48.9655 70.9416 48.7789l5.1122-4.7449C76.7552 43.3746 77.8848 43.3693 78.6231 44.0235l1.563 1.4555C80.3779 45.6603 80.7168 45.6551 80.9244 45.4685 81.6153 44.817 82.7449 44.8117 83.4831 45.4685l1.8232 1.692C85.5007 47.3418 85.8369 47.3366 86.0471 47.15l3.3784-3.1422C89.7013 43.7529 90.1322 43.766 90.387 44.0419S90.6287 44.7487 90.3528 45.0035L86.9639 48.1563C86.2152 48.8236 85.083 48.8157 84.3789 48.1536l-1.81-1.6788C82.3692 46.2988 82.033 46.2935 81.8438 46.4722 81.0925 47.1421 79.9602 47.1342 79.2562 46.4722L77.7088 45.0298C77.5118 44.8537 77.1729 44.8485 76.9838 45.0298l-5.1254 4.758C71.4854 50.1189 71.0177 50.2844 70.5554 50.2844V50.2765z" fill="#fff"></path><path d="M73.6295 62.5714c-2.67959999999999.0-5.1622-1.3846-6.8172-3.962C66.6231 58.3152 66.6731 57.9105 66.9489 57.6977 67.2668 57.4508 67.7186 57.5348 67.9288 57.8633 69.9437 61.0187 73.2617 62.0538 76.5849 60.5694 76.9343 60.4144 77.3441 60.5799 77.4834 60.9398 77.6147 61.2761 77.4335 61.6623 77.1051 61.8068 75.9413 62.3218 74.767 62.5714 73.6269 62.5714H73.6295z" fill="#010101"></path><path d="M52.9602 12.2166C52.9497 12.0143 52.9181 11.7989 52.8577 11.5467 52.7999 11.2944 52.7053 11.0265 52.5714 10.7348 52.4347 10.4563 52.2535 10.1489 52.017 9.86781 51.933 9.75221 51.8332 9.63661 51.7202 9.53414 51.8962 8.87994 51.5389 8.30719 51.5389 8.30719 50.9111 8.25727 50.517 8.47796 50.362 8.58831 50.3384 8.57517 50.3121 8.56204 50.2884 8.56204 50.186 8.52263 50.073 8.47008 49.9627 8.44381 49.8497 8.4044 49.7368 8.3755 49.6238 8.33609 49.5108 8.30982 49.3847 8.28354 49.2586 8.25464 49.235 8.25464 49.2219 8.25464 49.1956 8.24151 48.9355 7.36661 48.1605 6.98828 48.1605 6.98828 47.2805 7.52688 47.0913 8.30719 47.0913 8.30719S47.0887 8.32033 47.0782 8.35711C47.0257 8.36762 46.9757 8.38075 46.9258 8.39126 46.8628 8.41491 46.7866 8.43855 46.7235 8.45169 46.6605 8.47534 46.5843 8.49898 46.5213 8.52526 46.3952 8.58568 46.2533 8.64611 46.1272 8.70917 45.9985 8.78273 45.8724 8.8563 45.7568 8.92986 45.7463 8.91672 45.7331 8.91672 45.7331 8.91672 44.5299 8.44118 43.4476 8.99029 43.4476 8.99029 43.3268 10.275 43.8916 11.1026 44.015 11.255 43.9888 11.3312 43.9625 11.4179 43.9362 11.4941 43.8417 11.7831 43.7734 12.0826 43.7182 12.3979 43.7182 12.4478 43.7051 12.4846 43.7051 12.5372 42.5623 13.0469 42.2129 14.1766 42.2129 14.1766 43.1271 15.2643 44.2226 15.3589 44.2226 15.3589 44.3566 15.6137 44.5168 15.8423 44.6902 16.0735 44.7638 16.1628 44.8373 16.2522 44.924 16.3441 44.5694 17.3083 44.945 18.1333 44.945 18.1333 45.9906 18.1885 46.6789 17.7077 46.8181 17.5973 46.9206 17.6368 47.0335 17.663 47.1334 17.6893 47.4486 17.7813 47.7744 17.8259 48.1027 17.8575 48.1789 17.8575 48.2656 17.8575 48.3418 17.8601H48.3786 48.4049 48.4548L48.5047 17.8627C48.9854 18.5773 49.8392 18.6798 49.8392 18.6798 50.4697 18.0466 50.5039 17.4056 50.5065 17.2663V17.2033C50.6352 17.1166 50.7639 17.0193 50.8769 16.9195 51.1212 16.6962 51.3524 16.4492 51.5337 16.1865 51.5468 16.1628 51.5731 16.1366 51.5862 16.1129 52.2771 16.1628 52.7763 15.7057 52.7763 15.7057 52.6764 14.9858 52.2666 14.6259 52.1799 14.5497L52.1668 14.5365H52.1537S52.1431 14.5365 52.1431 14.5234C52.1431 14.4866 52.1563 14.4367 52.1589 14.3973 52.1589 14.3211 52.172 14.2475 52.1747 14.1582v-.176L52.1773 13.9191V13.793L52.1799 13.73 52.1694 13.6669C52.1563 13.5907 52.1458 13.504 52.1221 13.4252 52.0512 13.1099 51.9435 12.8156 51.7832 12.5477 51.6256 12.2797 51.426 12.038 51.2027 11.833 50.9794 11.6281 50.7298 11.4705 50.4671 11.3417 50.2044 11.2235 49.9285 11.1315 49.6527 11.1 49.5135 11.0843 49.3742 11.0711 49.2376 11.0685H49.1877 49.1746S49.1483 11.0685 49.1614 11.0685H49.0853L49.0353 11.0659C48.9592 11.0764 48.8961 11.0764 48.8226 11.0869 48.5441 11.1315 48.2893 11.2288 48.0476 11.3627 47.819 11.4967 47.6141 11.657 47.4486 11.8567 47.2805 12.0432 47.1517 12.256 47.0572 12.482 46.9652 12.7079 46.9101 12.9339 46.8969 13.1598V13.3227L46.8943 13.3595V13.4094L46.8917 13.4856C46.8996 13.5986 46.9232 13.7142 46.9468 13.814 47.0073 14.0295 47.0913 14.2186 47.2148 14.3736 47.3251 14.5392 47.4749 14.6679 47.6246 14.7835 47.7744 14.886 47.9372 14.9648 48.0975 15.0173 48.2604 15.0699 48.4127 15.0856 48.5625 15.0883H48.615 48.6387 48.7148 48.728 48.7411 48.7648C48.791 15.0883 48.8042 15.0883 48.8173 15.0778 48.8278 15.0778 48.8541 15.0646 48.8672 15.0672 48.9066 15.0567 48.9303 15.0567 48.967 15.0436 49.0301 15.02 49.0958 14.9963 49.1588 14.97 49.2219 14.9464 49.2718 14.9096 49.3243 14.8702 49.3375 14.8597 49.348 14.8439 49.3611 14.8466 49.411 14.8098 49.4268 14.7336 49.3769 14.6837 49.3401 14.6337 49.277 14.618 49.2245 14.6548 49.2114 14.6679 49.1982 14.6679 49.1877 14.6784 49.1483 14.7021 49.0984 14.7152 49.0485 14.7257 48.9959 14.7362 48.946 14.7493 48.8961 14.7599 48.8698 14.7599 48.8436 14.7704 48.8199 14.7704H48.7805 48.7437 48.707 48.6544 48.6439 48.6176 48.5809C48.4679 14.7546 48.3418 14.7152 48.2288 14.6626 48.1159 14.6101 48.0029 14.5313 47.9057 14.442 47.8059 14.3526 47.7192 14.237 47.6588 14.124 47.5983 13.9979 47.5484 13.8692 47.5248 13.7194 47.5143 13.6432 47.5143 13.5802 47.5169 13.504V13.4173L47.5195 13.391C47.5195 13.3542 47.5327 13.3148 47.5327 13.2781 47.5905 12.9759 47.7586 12.6764 48.0003 12.4531 48.066 12.39 48.129 12.3401 48.1921 12.306 48.2577 12.256 48.3339 12.2192 48.4101 12.1825 48.4863 12.1457 48.5625 12.122 48.6518 12.0984 48.728 12.0747 48.8147 12.0616 48.904 12.0642H49.0301L49.0537 12.0669H49.0931 49.1168 49.1299 49.1693C49.256 12.08 49.3558 12.0958 49.4452 12.1089 49.6212 12.1483 49.7972 12.2166 49.9574 12.3191 50.2832 12.5004 50.5564 12.7973 50.7272 13.1388 50.8112 13.3175 50.8717 13.4935 50.8927 13.6827 50.9058 13.7326 50.9058 13.7851 50.9032 13.8219V13.9717L50.9005 13.9979V14.124C50.8979 14.174 50.8848 14.2239 50.8848 14.2738 50.8822 14.3237 50.869 14.3736 50.8559 14.4262 50.8401 14.4761 50.8296 14.526 50.8139 14.5759 50.7876 14.6758 50.7482 14.7782 50.7088 14.8781 50.63 15.0646 50.5249 15.2538 50.3962 15.4272 50.1387 15.7635 49.8077 16.0341 49.411 16.2049 49.2219 16.2889 49.0196 16.3494 48.8042 16.3835 48.7017 16.394 48.5887 16.4045 48.4889 16.4151H48.4495 48.4127 48.3628 48.3365 48.3234C48.2735 16.4151 48.2105 16.4124 48.1605 16.3993 47.9346 16.3835 47.7087 16.3284 47.4959 16.2627 47.2805 16.197 47.0703 16.105 46.8812 15.9999 46.495 15.7793 46.1351 15.4824 45.8619 15.1251 45.7279 14.9464 45.6044 14.7546 45.5072 14.5654 45.41 14.3631 45.3391 14.1608 45.2787 13.9428 45.2182 13.7273 45.1972 13.5119 45.1762 13.2991V13.236L45.1788 13.2229V13.1598L45.1815 13.1336V12.9707C45.1867 12.8577 45.1998 12.7578 45.2156 12.6422 45.2287 12.5293 45.2576 12.4163 45.2708 12.3138 45.297 12.2009 45.3233 12.101 45.3522 11.988 45.4205 11.7752 45.4993 11.5624 45.5913 11.3759 45.7725 10.987 46.0195 10.6402 46.3137 10.367 46.3899 10.2934 46.4661 10.2304 46.5449 10.1699 46.6211 10.1095 46.6973 10.0596 46.7866 9.99655 46.8628 9.94663 46.9521 9.89671 47.0414 9.84942 47.0782 9.82577 47.1307 9.81264 47.1675 9.78899 47.1938 9.77585 47.2174 9.76534 47.2306 9.76534 47.2568 9.75221 47.2805 9.7417 47.2936 9.7417 47.3829 9.70492 47.4828 9.67076 47.5721 9.64449 47.5983 9.63135 47.622 9.63398 47.6483 9.62084 47.6745 9.60771 47.6982 9.61033 47.7244 9.5972 47.7744 9.58669 47.8243 9.57355 47.8637 9.56041 47.8899 9.54728 47.9136 9.5499 47.9399 9.5499 47.9635 9.5499 47.9898 9.5394 48.016 9.5394 48.0397 9.5394 48.066 9.52889 48.0922 9.52889L48.129 9.51838H48.1684C48.1921 9.51838 48.2183 9.50787 48.2446 9.50787 48.2682 9.50787 48.2945 9.49736 48.3313 9.49736 48.3576 9.49736 48.397 9.48685 48.4206 9.48685H48.4705 48.5099 48.5231 48.5467 48.636L48.6728 9.48948H48.6859 48.6991 48.7726L49.0511 9.49473C49.2403 9.5105 49.4163 9.52626 49.5923 9.56567 49.9443 9.63398 50.2806 9.75484 50.58 9.90985 50.8795 10.0675 51.1554 10.2461 51.3787 10.4537 51.3918 10.4668 51.4049 10.48 51.4155 10.4931 51.4286 10.5062 51.4417 10.5194 51.4522 10.5325 51.4785 10.5588 51.5021 10.5851 51.5389 10.6087 51.5652 10.635 51.5888 10.6613 51.6151 10.6849 51.6388 10.7112 51.6624 10.7374 51.6887 10.7611 51.7885 10.8636 51.8726 10.9792 51.9593 11.0921 52.1195 11.3102 52.2561 11.5256 52.3533 11.7411 52.3638 11.7542 52.3638 11.7674 52.377 11.7779 52.3901 11.791 52.3901 11.8041 52.3901 11.8173 52.4006 11.8435 52.4137 11.8672 52.4242 11.8935 52.4374 11.9197 52.4505 11.9434 52.461 11.9697 52.4742 11.9959 52.4847 12.0196 52.4978 12.0458 52.5346 12.1483 52.5714 12.235 52.595 12.3243 52.6423 12.4636 52.6791 12.5897 52.7001 12.7053 52.7132 12.7447 52.75 12.7815 52.8025 12.7684 52.8525 12.7684 52.8892 12.7316 52.8919 12.6817 52.9707 12.4951 52.9733 12.3559 52.9628 12.2035H52.9602V12.2166z" fill="#f9a01f"></path><path d="M69.3697 81.2442 83.1801 73.977 83.1906 73.9192C83.4481 72.5504 82.5443 71.2315 81.1756 70.974L78.7377 70.5169 77.088 70.2069 64.2338 67.7976l-1.3188-.247L60.154 67.0331C58.7853 66.7756 57.4665 67.6794 57.2091 69.0482L57.2012 69.0929 67.444 80.8816C67.9195 81.4228 68.7313 81.5752 69.3697 81.2415V81.2442z" fill="#fff" stroke="#000" stroke-width="1.05092" stroke-linecap="round" stroke-linejoin="round"></path><path d="M57.1999 69.0928 54.7592 82.1163C54.7565 82.1321 54.7565 82.1479 54.7539 82.1636l9.411-5.0549-6.965-8.0159z" fill="#f1f1f1" stroke="#000" stroke-width="1.05092" stroke-linecap="round" stroke-linejoin="round"></path><path d="M80.7421 86.9853 83.1802 73.9775 73.8086 78.909 80.7368 87.0221S80.7421 86.9985 80.7447 86.988L80.7421 86.9853z" fill="#f1f1f1" stroke="#000" stroke-width="1.05092" stroke-linecap="round" stroke-linejoin="round"></path><path d="M73.8096 78.9068l-4.4397 2.3356C68.7289 81.5735 67.9198 81.4237 67.4443 80.8825L64.1683 77.1123 54.7582 82.1672C54.5297 83.5203 55.4255 84.8103 56.7811 85.0652l21.0216 3.9383C79.1609 89.2583 80.4666 88.3729 80.7398 87.0225L73.8122 78.9094 73.8096 78.9068z" fill="#e5e6e7" stroke="#000" stroke-width="1.05092" stroke-linecap="round" stroke-linejoin="round"></path><path d="M81.606 83.2048 80.8125 87.1589C84.8769 87.5241 86.9446 86.0081 88.3319 82.4113 89.5194 79.3295 88.789 74.4059 84.7535 73.9619" fill="#f89f20"></path><path d="M83.4756 87.7576C82.6611 87.8943 81.7573 87.9127 80.7537 87.8233 80.3859 87.7892 80.1152 87.466 80.1494 87.0982 80.1835 86.7304 80.5067 86.4598 80.8745 86.4939 84.516 86.8223 86.3709 85.6505 87.7134 82.172 87.8474 81.8278 88.231 81.657 88.5752 81.7884 88.9193 81.9198 89.0901 82.306 88.9588 82.6502 87.7843 85.6978 86.0818 87.3215 83.4808 87.755L83.4756 87.7576z" fill="#000"></path><path d="M88.4392 83.0712C88.3262 83.0896 88.2054 83.0791 88.0898 83.0345 87.7456 82.9031 87.5748 82.5169 87.7062 82.1727 88.4418 80.2626 88.3105 77.8639 87.3856 76.3427 86.7708 75.3338 85.8592 74.7558 84.6769 74.6244 84.3117 74.585 84.0463 74.254 84.0884 73.8888 84.1278 73.5236 84.4588 73.2582 84.824 73.3003 86.4188 73.4763 87.6983 74.2881 88.5259 75.6517 89.8474 77.8245 89.6924 80.7329 88.9515 82.6535 88.8648 82.8821 88.6625 83.0345 88.4392 83.0712z" fill="#000"></path><path d="M87.4451 78.8831 85.2618 84.658 82.6555 83.8146C81.5573 83.6832 78.9773 82.0963 79.2689 78.7623 79.5605 75.4309 82.3324 73.5944 84.8441 73.9753l2.601 4.9078z" fill="#f89f20"></path><path d="M81.4315 83.9124C81.2712 83.9387 81.0978 83.9071 80.9507 83.8099 80.1573 83.2792 78.3392 81.7212 78.6019 78.7051 78.7569 76.9316 79.5871 75.4026 80.9376 74.4016 82.2328 73.44 83.8907 73.08 85.4802 73.4137 85.8401 73.4899 86.0713 73.8419 85.9951 74.2045 85.9189 74.5644 85.5669 74.7957 85.2043 74.7195 83.9852 74.4646 82.7189 74.7379 81.7284 75.4735 80.688 76.2459 80.0495 77.4335 79.9287 78.8233 79.7264 81.1275 81.0926 82.3045 81.689 82.7012 81.9964 82.9061 82.0778 83.3186 81.8729 83.626 81.7678 83.7863 81.6023 83.8835 81.4289 83.9124H81.4315z" fill="#000"></path><path d="M47.3613 79.3515C53.548 82.767 58.5999 82.8537 59.522 78.587 60.4467 74.3202 54.7617 70.7786 51.7301 70.2637" fill="#f9a01f"></path><path d="M54.4984 82.4935C55.7068 82.5776 56.7682 82.4225 57.6456 82.0232 58.9565 81.4268 59.8287 80.2865 60.1676 78.7259 60.4828 77.2783 60.1439 75.7676 59.1877 74.3567 57.5169 71.8844 54.1385 70.0033 51.8398 69.6118 51.4799 69.5514 51.1384 69.7931 51.078 70.153 51.0175 70.513 51.2592 70.8545 51.6191 70.9149 53.6026 71.2512 56.6421 72.9458 58.0948 75.0976 58.854 76.2195 59.1167 77.3466 58.8777 78.4474 58.6281 79.6008 58.0318 80.3995 57.1018 80.8225 55.1131 81.7263 51.6796 80.9801 47.6838 78.7732 47.3659 78.5972 46.9614 78.7128 46.7854 79.0333 46.6094 79.3539 46.7249 79.7558 47.0454 79.9319 49.8564 81.4846 52.402 82.3516 54.501 82.4961L54.4984 82.4935z" fill="#000"></path></g><defs><clipPath id="clip0_12070_51"><rect width="98" height="98" fill="#fff"></rect></clipPath></defs></svg>