<svg width="182" height="230" fill="none" xmlns="http://www.w3.org/2000/svg"><path fill-rule="evenodd" clip-rule="evenodd" d="M161.031 71.179 91.34 22.194 20.495 71.268v6.749l70.846 47.976 69.69-47.887v-6.927ZM6.303 56.167A14.64 14.64 0 0 0 0 68.2v12.922c0 4.857 2.409 9.398 6.43 12.121l76.727 51.958a14.637 14.637 0 0 0 16.499-.056l75.521-51.894a14.64 14.64 0 0 0 6.349-12.065v-13.05a14.64 14.64 0 0 0-6.221-11.977L99.782 3.077a14.64 14.64 0 0 0-16.754-.057L6.303 56.167Z" fill="#0C192F"/><path fill-rule="evenodd" clip-rule="evenodd" d="M.262 123.897a14.64 14.64 0 0 0 6.188 9.468l76.726 51.957a14.637 14.637 0 0 0 16.5-.056l75.52-51.894a14.635 14.635 0 0 0 6.118-9.475h-28.518L91.36 166.113l-62.339-42.216H.261Z" fill="#0C192F"/><path fill-rule="evenodd" clip-rule="evenodd" d="M.262 165.112a14.641 14.641 0 0 0 6.188 9.467l76.726 51.958a14.64 14.64 0 0 0 16.5-.056l75.52-51.895a14.635 14.635 0 0 0 6.118-9.474h-28.518L91.36 207.327l-62.339-42.215H.261Z" fill="#0C192F"/></svg>