<svg width="41" height="41" viewBox="0 0 41 41" fill="none" xmlns="http://www.w3.org/2000/svg">
<rect width="40.4776" height="40.4776" fill="#121C29"/>
<path d="M14.2467 32.4776C12.6296 32.4776 11.511 32.1634 10.8908 31.535C10.2705 30.9066 9.9604 29.9336 9.9604 28.6159V24.1461C9.9604 23.3758 9.81642 22.7981 9.52845 22.4129C9.24048 22.0075 8.731 21.7642 8 21.6831V18.8249C8.8196 18.7235 9.35124 18.4499 9.5949 18.0039C9.83857 17.5377 9.9604 16.8484 9.9604 15.9362V11.8921C9.9604 10.5745 10.2705 9.60143 10.8908 8.97302C11.511 8.32434 12.6296 8 14.2467 8H16.8943V11.3901H16.1555H15.4167C14.8629 11.3901 14.4864 11.5117 14.287 11.755C14.1098 11.978 14.0212 12.353 14.0212 12.88V17.3958C14.0212 18.0242 13.8772 18.5918 13.5892 19.0985C13.3234 19.5851 12.9025 19.9702 12.3266 20.254C12.9025 20.5378 13.3234 20.9331 13.5892 21.4399C13.8772 21.9264 14.0212 22.4839 14.0212 23.1123V27.628C14.0212 28.1348 14.1098 28.5098 14.287 28.753C14.4864 28.976 14.8629 29.0875 15.4167 29.0875H16.8943V32.4776H14.2467Z" fill="#0BDDA3"/>
<path d="M31.4874 25.317C32.1476 23.7826 32.4776 22.0533 32.4776 20.1292C32.4776 17.6936 31.9472 15.5747 30.8862 13.7723C29.8253 11.9456 28.34 10.533 26.4304 9.53442C24.5443 8.51147 22.3282 8 19.782 8H18.7319L18.7319 11.4342L19.782 11.4342C21.5737 11.4342 23.1415 11.7995 24.4854 12.5302C25.8292 13.2609 26.8783 14.2838 27.6328 15.599C28.3872 16.8899 28.7644 18.3999 28.7644 20.1292C28.7644 21.5175 28.5286 22.7718 28.0571 23.8922C27.6092 25.0126 26.9608 25.9502 26.1121 26.7053C25.287 27.4603 24.3203 28.0448 23.2123 28.4589C22.1042 28.8729 20.9018 29.08 19.6052 29.08H18.7319L18.7319 32.4776H19.6052C21.4441 32.4776 23.1415 32.1975 24.6976 31.6373C26.2536 31.0772 27.6092 30.2612 28.7644 29.1896C29.9432 28.1179 30.8509 26.8271 31.4874 25.317Z" fill="#FAFCFB"/>
</svg>
