<svg xmlns="http://www.w3.org/2000/svg" viewBox="0 0 64 64" aria-hidden="true">
  <path fill="#F05133" d="M61.3 29.3 34.7 2.7a9 9 0 0 0-12.7 0L2.7 22a9 9 0 0 0 0 12.7l26.6 26.6a9 9 0 0 0 12.7 0L61.3 42a9 9 0 0 0 0-12.7Z"/>
  <path fill="#fff" d="M42.6 29.2 34.8 21.4a6 6 0 0 0-7.7-7.7 6 6 0 0 0 4.2 10.2v10.3a6 6 0 1 0 3.4 0V23.8l5.5 5.5a6 6 0 1 0 2.4-.1Zm-16.9-8.8a2.6 2.6 0 1 1 0-5.2 2.6 2.6 0 0 1 0 5.2Zm7.3 26.9a2.6 2.6 0 1 1 0-5.2 2.6 2.6 0 0 1 0 5.2Zm10.2-10.2a2.6 2.6 0 1 1 0-5.2 2.6 2.6 0 0 1 0 5.2Z"/>
</svg>
