<svg xmlns="http://www.w3.org/2000/svg" xmlns:xlink="http://www.w3.org/1999/xlink" viewBox="0 0 305.92 350.13" width="256" height="256"><defs><linearGradient id="linear-gradient" x1="45.77" y1="21.43" x2="201.89" y2="291.83" gradientUnits="userSpaceOnUse"><stop offset="0" stop-color="#18bab6"></stop><stop offset=".5" stop-color="#00adee"></stop><stop offset="1" stop-color="#0095c4"></stop></linearGradient><linearGradient id="linear-gradient-2" x1="197.65" y1="237.84" x2="65.97" y2="9.77" gradientUnits="userSpaceOnUse"><stop offset="0" stop-color="#fdfdfe" stop-opacity="0"></stop><stop offset=".11" stop-color="#fdfdfe" stop-opacity=".17"></stop><stop offset=".3" stop-color="#fdfdfe" stop-opacity=".42"></stop><stop offset=".47" stop-color="#fdfdfe" stop-opacity=".63"></stop><stop offset=".64" stop-color="#fdfdfe" stop-opacity=".79"></stop><stop offset=".78" stop-color="#fdfdfe" stop-opacity=".9"></stop><stop offset=".91" stop-color="#fdfdfe" stop-opacity=".97"></stop><stop offset="1" stop-color="#fdfdfe"></stop></linearGradient><linearGradient id="linear-gradient-3" x1="158.8" y1="236.43" x2="63.93" y2="72.09" xlink:href="#linear-gradient-2"></linearGradient><linearGradient id="linear-gradient-4" x1="145.73" y1="248.43" x2="92.77" y2="156.7" xlink:href="#linear-gradient-2"></linearGradient><linearGradient id="linear-gradient-5" x1="147.93" y1="266.95" x2="114.95" y2="209.83" xlink:href="#linear-gradient-2"></linearGradient><linearGradient id="linear-gradient-6" x1="92.25" y1="261.75" x2="92.25" y2="321.91" gradientUnits="userSpaceOnUse"><stop offset="0" stop-color="#231f20"></stop><stop offset=".03" stop-color="#231f20" stop-opacity=".9"></stop><stop offset=".22" stop-color="#231f20" stop-opacity=".4"></stop><stop offset=".42" stop-color="#231f20" stop-opacity=".1"></stop><stop offset=".65" stop-color="#231f20" stop-opacity="0"></stop></linearGradient><linearGradient id="Fade_to_Black_2" data-name="Fade to Black 2" x1="159.88" y1="256.07" x2="159.88" y2="286.75" gradientUnits="userSpaceOnUse"><stop offset="0" stop-color="#231f20"></stop><stop offset="1" stop-color="#231f20" stop-opacity="0"></stop></linearGradient><linearGradient id="linear-gradient-7" x1="174.69" y1="176.58" x2="174.69" y2="151.5" gradientUnits="userSpaceOnUse"><stop offset="0" stop-color="#231f20"></stop><stop offset=".03" stop-color="#231f20" stop-opacity=".95"></stop><stop offset=".51" stop-color="#231f20" stop-opacity=".26"></stop><stop offset=".81" stop-color="#231f20" stop-opacity="0"></stop></linearGradient><linearGradient id="linear-gradient-8" x1="229.53" y1="195.1" x2="229.53" y2="134.41" gradientUnits="userSpaceOnUse"><stop offset="0" stop-color="#231f20"></stop><stop offset=".18" stop-color="#231f20" stop-opacity=".48"></stop><stop offset=".38" stop-color="#231f20" stop-opacity=".12"></stop><stop offset=".58" stop-color="#231f20" stop-opacity="0"></stop></linearGradient><linearGradient id="Fade_to_Black_2-2" data-name="Fade to Black 2" x1="286" y1="242.89" x2="265.05" y2="206.61" xlink:href="#Fade_to_Black_2"></linearGradient><linearGradient id="linear-gradient-9" x1="302.87" y1="232.93" x2="271.49" y2="178.58" xlink:href="#linear-gradient-2"></linearGradient><linearGradient id="linear-gradient-10" x1="221.39" y1="223.73" x2="267.07" y2="197.36" gradientUnits="userSpaceOnUse"><stop offset="0" stop-color="#231f20"></stop><stop offset=".31" stop-color="#231f20" stop-opacity=".5"></stop><stop offset=".67" stop-color="#231f20" stop-opacity=".13"></stop><stop offset="1" stop-color="#231f20" stop-opacity="0"></stop></linearGradient></defs><g id="Layer_1-2" data-name="Layer 1"><path style="fill:url(#linear-gradient)" d="m305.42,218.76c-.9-4.06-2.96-7.8-6.14-11.13-1.22-1.28-2.59-2.48-4.07-3.58-.72-.53-1.48-1.03-2.26-1.52-.97-.6-1.98-1.19-3.07-1.75-4.05-2.08-7.5-4.17-10.53-6.41-1.23-.91-2.42-1.86-3.53-2.83-2.71-2.37-4.53-4.38-5.88-6.53-.44-.69-.83-1.44-1.2-2.14-.16-.31-.39-.57-.66-.77-.49-.36-1.12-.52-1.75-.4-.97.18-1.72.97-1.83,1.96-.09.76-.08,1.57.02,2.41.06.5-.2.96-.66,1.17-.11.05-.22.08-.33.09-.64.08-1.23.43-1.6.96-.37.54-.48,1.2-.33,1.83.14.55.32.93.48,1.24l.14.28c.1.19.2.39.31.58.3.57.62,1.15,1,1.71.71,1.04,1.52,2.07,2.46,3.18.3.35.35.86.13,1.27-.22.41-.68.64-1.14.58-5.37-.73-10.17-1.93-14.65-3.59-.51-.19-1.03-.37-1.53-.57-4.02-1.69,3.23-8.92,6.55-14.03,14.55-22.37,17.56-48,17.68-73.93.12-25.07-2.59-49.78-7.57-74.18v-.04c-3.25-20.44-6.01-28.12-7.74-30.97-.37-.76-.78-1.22-1.21-1.45-.48-.32-.73-.17-.73-.17-.93.03-2.01.87-3.3,2.22-5.42,5.71-5.12,12.49-3.62,19.58,6.85,32.22,12.01,64.63,9.66,97.75-1.61,22.83-5.87,44.82-21.82,62.69-.96,1.08-1.99,2.08-3.02,3.1-1.2,1.17-3.04,3.46-4.42,2.51-1.84-1.28-.2-3.9.37-5.25,9.35-21.89,12.04-44.77,10.6-68.36-.03-.55-.09-1.09-.13-1.63l.02-.03c-.04-.44-.08-.85-.12-1.28-.24-3.12-.53-6.23-.92-9.33-4.02-37.42-8.84-39.84-8.84-39.84h0c-.32-.28-.72-.51-1.25-.62-2.53-.53-3.92,1.7-5.04,3.39-5.07,7.6-2.83,15.67-1.19,23.67,5.73,28.01,5.82,55.75-4.02,83-.9,2.48-1.98,4.9-3.12,7.28-1.2,2.53-1.99,5.7-6.12,4.34-3.86-1.28-2.78-4.2-2.27-6.87,1.29-6.79,2.33-13.59,2.98-20.42l.02.04c.06-.67.1-1.32.16-1.98.1-1.18.17-2.36.24-3.54.06-.99.11-1.96.15-2.91.02-.49.04-.97.06-1.46.78-21.63-2.85-31.46-4.23-34.37-.15-.36-.32-.68-.51-.97h0s0,0,0,0c-1.43-2.14-3.8-1.89-5.84.13-3.76,3.72-5.84,8.1-4.88,13.62,2.8,16.09,1.16,32.03-1.84,47.9-.41,2.13-1.36,6-5.9,5.01-3.09-.68-3.81-2.01-3.99-4.69.03-2.03.01-4.05-.06-6.08,0-.05,0-.1,0-.15h0c-.01-.29-.03-.57-.04-.86v-.02c0-.14,0-.27-.02-.4-.13-2.76-.36-5.53-.7-8.3-.03-.27-.08-.53-.12-.79-1.74-15.62-4-17.13-4-17.13-1.45-1.88-3.71-1.57-5.67.38-3.76,3.72-5.67,8.08-4.88,13.62.57,4.06.43,2.81.84,6.34.33,1.82.66,5.13.69,6.19-.09.94-.32,1.76-.9,2.37-1.92,2.07-5.02-.05-7.37-1.02-45.52-18.84-84.49-45.28-118.5-78.71C29.51,74.47,6.74,46.89,6.74,46.89h0c-.84-.99-1.91-1.55-3.53-.85C.24,47.32.33,51.13.06,54.33c-.54,6.41,2.88,11.07,6.62,15.42,51.36,59.92,114.05,102.98,189.7,124.51l13.61,3.61c.16.04.32.08.48.12.03,0,.05.02.07.02l11.72,3.11.32.08c-.38.11-.82.2-1.28.28-12.9,2.55-38.42-2.14-58.91-6.92-10.15-2.13-20.1-4.71-29.85-7.79-.45-.13-.69-.2-.69-.2v-.02c-37.88-12.05-72.58-31.59-102.92-61.4-2.87-2.82-5.54-5.86-8.15-8.95-2.41-2.86-7.36-8.84-9.06-10.89-.19-.27-.39-.51-.6-.73h0s0,0,0,0c-.52-.53-1.14-.87-2.03-.66-2.12.49-2.72,2.67-3.11,4.51-1.55,7.39.8,13.59,5.76,19.15,31.09,34.84,70.09,57.1,113.9,71.7,24.88,8.29,50.46,13.32,76.57,16.54-15.56,5.04-31.58,6.57-47.72,6.17-31.26-.78-60.57-8.29-88.12-21.68-10.16-5.22-19.62-11.05-22.11-12.6-1.43-.98-2.9-1.57-4.36-.45-2.74,2.12-.85,5.85.03,8.76,1.69,5.6,5.58,9.47,10.63,12.14,44.88,23.74,92.26,33.22,142.71,24.8,5.11-.85,9.95-1.79,15.29-3.59-8.43,7.3-18.2,12.06-28.47,15.82-31.59,11.56-62.98,11.09-94.25,3.27-10.03-2.69-21.68-7.05-21.68-7.05h0c-1.68-.73-3.34-.99-4.64.87-2.28,3.27-.29,6.66,1.68,9.74,4.67,7.27,13.68,7.98,20.81,10.44,2.44.77-4.2,5.21-6.34,6.84-10.34,7.91-20.46,15.14-30.76,22.8l-6.74,4.97h0c-1.16.8-2.18,1.69-1.64,3.37.61,1.88,2.57,2.22,4.47,2.62,7.37,1.53,13.66-.92,19.48-5.27,12.48-9.35,25.18-18.41,37.39-28.11,4.64-3.7,8.86-3.39,15.21-1.74-15.88,11.97-30.73,23.17-45.6,34.36-15.08,11.35-30.18,22.7-45.28,34.03l-9.98,7.38c-.15.1-.29.21-.43.32l-.15.11h0c-.85.68-1.48,1.44-1.3,2.44.4,2.25,3.05,2.81,5.21,3.18,8.92,1.54,14.44-1.82,20.54-6.39,30.5-22.9,61.12-45.64,91.44-68.76,6.8-5.18,13.79-8.11,23.61-7.01-8.36,6.25-16.38,12.24-24.3,18.16l-21.51,15.92c-.15.11-.3.22-.45.33h-.02c-1.14.9-1.94,1.96-1.49,3.53.82,2.84,4.24,3.18,7.15,3.62,5.34.8,9.87-1.09,14.06-4.21,2.41-1.8,4.84-3.57,7.28-5.33h0s32.84-26.08,32.84-26.08c0,0,7.76-5.54,16.74-10.64.8-.5,1.61-1,2.41-1.49.34-.15,1.2-.54,2.48-1.16.97-.5,1.93-.99,2.89-1.44,1.41-.72,3.05-1.59,4.88-2.59,5.3-2.2,20.44-9.27,32.98-22.62,5.96-4.6,14.34-10.6,20.87-13.49h0s.04-.02.04-.02c.5-.22.98-.42,1.46-.6h0s.03,0,.06-.02c.32-.12.63-.23.93-.33l.84-.33c2.36-.67,6.22-.92,6.71,4.29.09,1.28.06,2.59-.08,3.97-.11,1.04-.3,2.14-.46,3.02-.15.85.2,1.71.88,2.21.11.08.22.15.34.21.9.44,1.99.24,2.66-.51.25-.28.51-.55.77-.83,3.22-3.38,6.47-5.73,9.95-7.16,5.07-2.1,10.2-2.11,15.68-.02,2.6.99,5.05,2.34,7.48,4.14,1.03.76,2.08,1.62,3.11,2.55.61.56,1.22,1.18,1.76,1.72l.09.09.44.45c.08.08.17.16.26.22.52.38,1.18.53,1.82.39.75-.16,1.37-.69,1.63-1.41.05-.14.1-.28.15-.41,1.56-4.59,1.87-8.82.97-12.93Z"></path></g></svg>
